<?xml version="1.0" encoding="utf-8"?>
<!-- Svg Vector Icons : http://www.onlinewebfonts.com/icon -->
<!DOCTYPE svg PUBLIC "-//W3C//DTD SVG 1.1//EN" "http://www.w3.org/Graphics/SVG/1.1/DTD/svg11.dtd">
<svg fill="#9fa1a6" version="1.1" xmlns="http://www.w3.org/2000/svg" xmlns:xlink="http://www.w3.org/1999/xlink" x="0px" y="0px" viewBox="0 0 1000 1000" enable-background="new 0 0 1000 1000" xml:space="preserve">
<metadata> Svg Vector Icons : http://www.onlinewebfonts.com/icon </metadata>
<g><path d="M970.8,280.4L789,98.7c-13.6-13.6-32.2-20.5-51.5-19c-1.8-0.2-3.6-0.2-5.3-0.2h-96.8l-6.8,3.8c-35.9,20-81.6,30.9-128.9,30.9c-47.2,0-93-11-128.9-30.9l-6.8-3.8h-96.8c-24.7,0-46.9,13.5-58.4,34.9L29.2,294C16.8,306.4,10,322.8,10,340.4s6.8,34,19.2,46.4l131.3,131.3c11,11,25.2,17.6,40.5,18.9v317.2c0,36.6,29.7,66.3,66.3,66.3h465c36.6,0,66.3-29.7,66.3-66.3l0-330.7c15.5-1.3,29.8-7.9,40.9-19l131.3-131.3C996.4,347.7,996.4,306,970.8,280.4z M928.4,330.9L797.2,462.2c-1.4,1.4-2.9,1.7-4,1.7c-1,0-2.6-0.3-4-1.6l-50.5-47.7v439.7c0,3.5-2.9,6.4-6.4,6.4h-465c-3.5,0-6.4-2.9-6.4-6.4l0-424.1l-50.1,45.7c-1.4,1.2-2.9,1.5-3.9,1.5c-1.1,0-2.6-0.3-4-1.7L71.6,344.4c-1.4-1.4-1.7-3-1.7-4.1s0.3-2.7,1.7-4.1L253,155l5.8-5.2l2.6-6.4c0.7-1.8,2.7-4,5.9-4h81.5c43.9,22.7,95.9,34.7,151,34.7s107.1-12,151-34.7h81.5c0.3,0,0.6,0.1,1,0.1l4.3,0.6l4.3-0.6c1.4-0.2,3.2-0.2,4.9,1.6l181.8,181.8C930.7,325,930.7,328.7,928.4,330.9z"/></g>
</svg>
