<?xml version="1.0" encoding="utf-8"?>
<!-- Svg Vector Icons : http://www.onlinewebfonts.com/icon -->
<!DOCTYPE svg PUBLIC "-//W3C//DTD SVG 1.1//EN" "http://www.w3.org/Graphics/SVG/1.1/DTD/svg11.dtd">
<svg fill="#555" version="1.1" xmlns="http://www.w3.org/2000/svg" width="23" height="23" x="0px" y="0px" viewBox="0 0 1000 1000" enable-background="new 0 0 1000 1000" xml:space="preserve">
<metadata> Svg Vector Icons : http://www.onlinewebfonts.com/icon </metadata>
<g><g transform="translate(0.000000,511.000000) scale(0.100000,-0.100000)"><path d="M2303.4,4962.2c-580.7-72-1093.9-310.6-1467.6-686.5c-198.1-195.8-330.9-387.2-461.4-664C68.3,2972.4,16.5,2229.6,228.1,1509.3c369.1-1265,1582.4-3079.2,3432.6-5132c499.7-551.5,963.4-1030.9,1051.2-1084.9c103.5-63,227.3-65.3,337.6-9c119.3,63,1039.9,999.4,1715.2,1746.7C8104-1488.9,9031.3-219.4,9513,789c310.6,652.8,420.9,1136.7,378.2,1685.9c-54,727-326.4,1337-799.1,1794c-292.6,279.1-585.2,452.4-976.9,578.5c-315.1,99-511,126.1-900.4,123.8c-774.3-2.2-1388.8-240.8-1913.3-740.5c-177.8-168.8-216.1-189.1-348.9-189.1c-135.1,0-211.6,42.8-402.9,222.8c-364.6,344.4-808.1,562.7-1343.8,666.3C2969.7,4975.7,2530.7,4991.4,2303.4,4962.2z M2890.9,4244.1c294.9-31.5,452.4-76.5,711.3-202.6c589.7-285.9,909.4-781.1,954.4-1474.3c22.5-321.9,58.5-409.7,211.6-486.2c254.4-130.5,531.2,60.8,533.5,364.7c0,159.8,60.8,474.9,123.8,641.5c213.8,567.2,722.6,976.9,1359.6,1098.4c245.3,47.3,693.3,47.3,920.6,0c767.6-157.6,1280.8-693.3,1433.8-1496.8c49.5-270.1,47.3-646-9-884.6C8880.5,755.2,7723.5-905.9,5808-2958.7c-549.2-589.7-679.8-711.3-796.8-742.8c-101.3-27-198.1-15.8-299.4,36c-110.3,56.3-1096.2,1172.7-1667.9,1886.3C1873.5-316.2,1123.9,928.6,901.1,1781.7c-117.1,438.9-94.5,949.9,56.3,1366.3c227.3,621.3,740.5,1015.2,1429.3,1093.9C2611.8,4268.9,2654.5,4268.9,2890.9,4244.1z"/></g></g>
</svg>